<svg xmlns="http://www.w3.org/2000/svg" viewBox="0 0 2880 310.2" class="logo" style="width: 50%;">
    <g fill="#fff">
        <path fill-rule="evenodd" d="M1795.008 19.8h10.785v267.9h-10.785z" clip-rule="evenodd"></path>
        <path
            d="M1911.24 82.1h16.577v126.8h-16.576zm47.532 37.5h15.378v13.8c3.095-5.4 7.09-9.3 12.082-11.8s10.385-3.8 16.277-3.8c4.993 0 9.586.8 13.78 2.5s7.689 4.1 10.485 7.3c2.995 3.1 5.292 6.9 6.99 11.4 1.697 4.4 2.496 9.3 2.496 14.8v55h-15.178v-52.7c0-7.5-1.997-13.4-5.891-17.7-3.795-4.4-8.888-6.6-15.179-6.6q-5.392 0-10.185 2.1c-3.095 1.4-5.791 3.6-8.188 6.4-2.297 2.7-4.094 6.1-5.492 10.2-1.298 4.1-1.997 8.7-1.997 13.9v44.3h-15.378zm131.91 91.1c-7.989 0-15.079-1.7-21.37-5-6.29-3.5-10.784-8.7-13.58-15.7l12.482-7c1.698 4.5 4.593 8 8.787 10.5 4.294 2.4 8.887 3.6 13.88 3.6 4.294 0 7.889-1 10.885-3 3.095-2.1 4.593-5.1 4.593-8.9 0-3.2-1.099-5.9-3.395-8s-6.291-4.1-12.083-5.9l-8.887-2.9c-7.39-2.1-12.981-5.4-16.776-9.8-3.694-4.5-5.492-9.9-5.492-16.3 0-3.8.8-7.2 2.297-10.2 1.697-3.1 3.894-5.7 6.59-7.7 2.896-2.1 6.092-3.7 9.786-4.8q5.543-1.8 11.983-1.8c6.69 0 12.482 1.4 17.475 4.1q7.49 3.9 11.982 11.4l-11.383 7.9c-1.997-2.9-4.594-5.2-7.689-7.1-2.996-2-6.59-3-10.884-3-3.795 0-7.29 1-10.385 2.9-2.996 1.9-4.494 4.5-4.494 7.9 0 2.7.799 5.2 2.497 7.3 1.797 2.1 5.192 4 10.185 5.5l9.786 3c7.689 2.4 13.68 5.7 17.874 9.8 4.294 4.2 6.39 9.6 6.39 16.4 0 4.3-.798 8.1-2.296 11.4s-3.695 6.1-6.59 8.4c-2.697 2.3-5.992 4-9.786 5.2s-7.989 1.8-12.382 1.8m87.174-.9c-3.895 0-7.59-.5-10.885-1.6-3.295-1.2-6.29-2.9-8.787-5-2.397-2.3-4.294-5.1-5.692-8.6-1.298-3.5-1.997-7.5-1.997-12.1v-48.8h-18.873v-14.1h18.873V94.8h15.378v24.8h25.663v14.1h-25.663v46.8c0 5.7 1.198 9.7 3.695 12 2.496 2.1 6.19 3.2 11.084 3.2 1.897 0 3.794-.1 5.691-.4 1.997-.4 3.695-.8 5.193-1.4v13.8c-1.897.6-3.994 1.1-6.191 1.4-2.297.5-4.793.7-7.49.7m41.14-114.1c-3.095 0-5.692-1-7.888-3-2.097-2.1-3.196-4.8-3.196-7.9 0-3 1.099-5.5 3.196-7.7 2.097-2.1 4.793-3.2 7.888-3.2s5.692 1.1 7.69 3.2 2.995 4.7 2.995 7.7c0 3.1-.999 5.7-2.996 7.9-1.997 2-4.593 3-7.689 3m-7.888 23.9h15.377v89.3h-15.377zm79.085 90.2c-3.894 0-7.589-.5-10.884-1.6-3.295-1.2-6.29-2.9-8.787-5-2.397-2.3-4.294-5.1-5.692-8.6-1.298-3.5-1.997-7.5-1.997-12.1v-48.8h-18.873v-14.1h18.873V94.8h15.378v24.8h25.663v14.1h-25.663v46.8c0 5.7 1.298 9.7 3.794 12 2.497 2.1 6.191 3.2 11.084 3.2 1.897 0 3.795-.1 5.692-.4 1.997-.4 3.695-.8 5.193-1.4v13.8c-1.898.6-3.995 1.1-6.291 1.4-2.297.5-4.793.7-7.49.7m64.907.9c-4.893 0-9.287-.8-13.381-2.5-4.094-1.8-7.49-4.2-10.385-7.3s-5.093-6.8-6.79-11.3c-1.498-4.5-2.297-9.6-2.297-15.2v-54.8h15.378v52.5c0 7.5 1.797 13.5 5.392 17.9 3.695 4.4 8.588 6.6 14.779 6.6q5.242 0 9.586-2.1c3.095-1.5 5.692-3.7 7.889-6.4 2.296-2.9 4.094-6.3 5.392-10.4 1.298-4 1.997-8.6 1.997-13.8v-44.3h15.378v89.3h-15.478v-13.8c-2.996 5.2-6.89 9.2-11.783 11.8-4.793 2.6-9.986 3.8-15.677 3.8m106.246-.9c-3.894 0-7.589-.5-10.884-1.6-3.295-1.2-6.191-2.9-8.787-5-2.397-2.3-4.294-5.1-5.692-8.6-1.298-3.5-1.997-7.5-1.997-12.1v-48.8h-18.873v-14.1h18.873V94.8h15.378v24.8h25.662v14.1h-25.563v46.8c0 5.7 1.199 9.7 3.695 12 2.496 2.1 6.191 3.2 11.084 3.2 1.897 0 3.795-.1 5.692-.4 1.997-.4 3.695-.8 5.192-1.4v13.8c-1.897.6-3.994 1.1-6.19 1.4-2.297.5-4.794.7-7.59.7m41.24-114.1c-3.095 0-5.691-1-7.888-3-2.097-2.1-3.195-4.8-3.195-7.9 0-3 1.098-5.5 3.195-7.7 2.097-2.1 4.793-3.2 7.889-3.2s5.691 1.1 7.689 3.2 2.995 4.7 2.995 7.7c0 3.1-.998 5.7-2.995 7.9-2.097 2-4.594 3-7.69 3m-7.888 23.9h15.378v89.3h-15.378zm83.979 91.1c-6.79 0-12.981-1.2-18.773-3.6-5.692-2.5-10.685-5.8-14.779-10-4.194-4.2-7.39-9.1-9.786-14.6-2.296-5.7-3.395-11.8-3.395-18.2s1.099-12.4 3.395-18c2.397-5.7 5.692-10.7 9.786-14.8 4.194-4.2 9.087-7.4 14.779-9.8 5.692-2.5 11.983-3.8 18.773-3.8 6.69 0 12.881 1.2 18.573 3.8 5.692 2.4 10.685 5.7 14.779 9.8 4.194 4.2 7.389 9.1 9.586 14.8q3.595 8.4 3.595 18c0 9.6-1.199 12.5-3.595 18.2-2.297 5.6-5.492 10.5-9.586 14.6-4.194 4.2-9.087 7.5-14.779 10q-8.538 3.6-18.573 3.6m0-14.3c4.593 0 8.887-.8 12.681-2.5s6.99-3.9 9.587-6.8q4.044-4.5 6.29-10.2c1.498-3.9 2.297-8.2 2.297-12.7 0-4.4-.799-8.6-2.296-12.5q-2.097-5.85-6.291-10.2c-2.597-3-5.792-5.3-9.587-7s-7.988-2.5-12.681-2.5c-4.594 0-8.887.8-12.682 2.5s-7.09 4-9.786 7c-2.696 2.9-4.893 6.3-6.39 10.2-1.398 3.9-2.097 8.1-2.097 12.5 0 4.5.699 8.7 2.096 12.7 1.598 3.8 3.695 7.2 6.391 10.2 2.696 2.9 5.992 5.1 9.786 6.8 3.895 1.7 8.088 2.5 12.682 2.5m68.6-76.8h15.379v13.8c3.095-5.4 7.09-9.3 12.082-11.8s10.385-3.8 16.277-3.8c4.992 0 9.586.8 13.78 2.5s7.689 4.1 10.485 7.3c2.995 3.1 5.292 6.9 6.99 11.4 1.697 4.4 2.496 9.3 2.496 14.8v55h-15.178v-52.7c0-7.5-1.997-13.4-5.892-17.7-3.794-4.4-8.887-6.6-15.178-6.6q-5.392 0-10.185 2.1c-3.096 1.4-5.792 3.6-8.188 6.4-2.297 2.7-4.094 6.1-5.492 10.2-1.298 4.1-1.997 8.7-1.997 13.9v44.3h-15.378zm141.796 91.1c-6.29 0-12.083-1.2-17.475-3.6-5.192-2.5-9.786-5.8-13.78-10-3.894-4.3-6.99-9.2-9.286-14.8-2.097-5.6-3.196-11.6-3.196-18s1.099-12.4 3.196-18c2.296-5.6 5.392-10.5 9.286-14.6 3.894-4.3 8.488-7.6 13.78-10 5.392-2.5 11.184-3.8 17.475-3.8 6.79 0 12.981 1.5 18.573 4.6 5.592 3 9.886 6.6 12.882 10.9v-13.8h15.377v89.3h-15.377v-13.8q-4.494 6.45-12.882 11.1-8.388 4.5-18.573 4.5m2.297-14.1c4.493 0 8.587-.8 12.282-2.5s6.79-3.9 9.486-6.8c2.696-3 4.793-6.4 6.291-10.4 1.498-3.9 2.297-8.2 2.297-12.7s-.799-8.8-2.297-12.7q-2.097-5.85-6.29-10.2c-2.597-3-5.792-5.3-9.487-7s-7.789-2.5-12.282-2.5-8.688.8-12.482 2.5c-3.695 1.7-6.89 4-9.586 7-2.597 2.9-4.694 6.3-6.192 10.2-1.398 3.9-2.096 8.2-2.096 12.7s.698 8.7 2.096 12.7c1.498 3.9 3.595 7.4 6.192 10.4 2.696 2.9 5.99 5.1 9.586 6.8 3.794 1.7 7.988 2.5 12.482 2.5M2864.664 75h15.378v134h-15.378zM1491.147 155.7c-8.787-5.8-18.473-9.9-27.56-15.1-5.891-3.4-12.282-6.3-17.375-10.6-8.787-7.2-6.99-21.4 2.197-27.6 13.181-8.8 34.95-3.9 37.246 14.1 0 .4.4.6.8.6h19.87c.5 0 .9-.4.8-.9-1-12.4-5.792-22.7-14.58-29.3-8.388-6.3-17.874-9.7-28.06-9.7-52.424 0-57.217 55.6-28.957 73.2 3.195 2.1 30.955 16 40.74 22.1s12.882 17.2 8.588 25.9c-3.894 8-13.88 13.6-23.965 12.9-10.984-.6-19.472-6.6-22.468-15.9-.499-1.7-.798-4.9-.798-6.3 0-.4-.4-.8-.8-.8h-21.568c-.4 0-.799.4-.799.8 0 15.6 3.894 24.3 14.48 32.1 9.885 7.5 20.77 10.6 31.953 10.6 29.358 0 44.636-16.6 47.631-33.9 2.696-16.9-2.296-32.1-17.375-42.2M569.378 80h-32.652c-.4 0-.6.3-.8.5l-17.674 58.3c-.3.8-1.298.8-1.498 0L499.08 80.5c-.1-.4-.4-.5-.799-.5H465.43c-.4 0-.8.4-.8.8v148.9c0 .4.4.8.8.8h21.469c.399 0 .798-.4.798-.8V116.5c0-.9 1.298-1 1.598-.3l17.774 58.7 1.299 4.1c.1.4.399.5.798.5h16.477c.399 0 .599-.3.798-.5l1.299-4.1 17.774-58.7c.3-.9 1.498-.6 1.498.3v113.2c0 .4.4.8.799.8h21.568c.4 0 .8-.4.8-.8V80.8c-.1-.4-.4-.8-.8-.8M1161.623 80c-.4 0-.599.3-.799.5l-17.674 58.3c-.3.8-1.298.8-1.598 0l-17.674-58.3c-.1-.4-.4-.5-.8-.5h-32.752c-.4 0-.799.4-.799.8v148.9c0 .4.4.8.8.8h21.468c.4 0 .799-.4.799-.8V116.5c0-.9 1.298-1 1.498-.3l17.774 58.7 1.298 4.1c.1.4.4.5.8.5h16.475c.4 0 .6-.3.8-.5l1.297-4.1 17.775-58.7c.3-.9 1.497-.6 1.497.3v113.2c0 .4.4.8.8.8h21.568c.4 0 .799-.4.799-.8V80.8c0-.4-.4-.8-.799-.8zM884.024 80H782.371c-.4 0-.799.4-.799.8v18.6c0 .4.4.8.799.8h39.343v129.6c0 .4.4.8.799.8h21.469c.4 0 .799-.4.799-.8V100.2h39.343c.4 0 .799-.4.799-.8V80.8c-.1-.4-.4-.8-.899-.8M1010.94 230.5h19.572c.5 0 .9-.5.8-1L990.87 80.1c-.1-.4-.4-.5-.8-.5h-28.059c-.399 0-.599.3-.798.5L920.77 229.5c-.1.5.3 1 .799 1h19.572c.399 0 .599-.3.798-.5l11.684-43.5c.1-.4.399-.5.798-.5h43.338c.4 0 .599.3.799.5l11.683 43.5c.1.2.4.5.699.5m-51.425-65.8 15.677-58.2c.3-.8 1.299-.8 1.498 0l15.678 58.2c.1.5-.3 1-.8 1h-31.454c-.3 0-.699-.5-.599-1M1344.958 230.5h19.572c.5 0 .899-.5.799-1l-40.442-149.4c-.1-.4-.399-.5-.798-.5h-28.06c-.4 0-.6.3-.799.5l-40.441 149.4c-.1.5.3 1 .798 1h19.572c.4 0 .6-.3.799-.5l11.683-43.5c.1-.4.4-.5.799-.5h43.337c.4 0 .6.3.8.5l11.682 43.5c.1.2.3.5.7.5m-51.425-65.8 15.677-58.2c.3-.8 1.298-.8 1.498 0l15.677 58.2c.1.5-.3 1-.799 1h-31.454c-.3 0-.7-.5-.6-1M657.551 208.5v-46.2c0-.4.4-.8.799-.8h57.317c.4 0 .799-.4.799-.8v-18.6c0-.4-.4-.8-.799-.8H658.35c-.4 0-.799-.4-.799-.8V101c0-.4.4-.8.799-.8h65.206c.4 0 .799-.4.799-.8V80.8c0-.4-.4-.8-.8-.8h-88.272c-.4 0-.799.4-.799.8v149c0 .4.4.8.8.8h90.968c.4 0 .799-.4.799-.8v-19.6c0-.4-.4-.8-.8-.8h-68c-.5-.1-.7-.4-.7-.9M1687.763 229.3l-74.492-77c-.3-.3-.3-.8 0-1l67.003-69.7c.5-.5.1-1.3-.5-1.3h-27.46c-.299 0-.399.1-.499.3l-56.818 59.1c-.499.5-1.298.1-1.298-.5V81.1c0-.4-.4-.8-.799-.8h-21.568c-.4 0-.8.4-.8.8V230c0 .4.4.8.8.8h21.568c.4 0 .8-.4.8-.8v-65.6c0-.6.898-1 1.297-.5l64.407 66.6c.1.1.4.3.5.3h27.46c.5-.2.899-1.1.4-1.5"></path>
    </g>
    <path fill="#6d95f9"
        d="M318.141 0 188.23 97l24.165-57.1zM18.374 0l128.814 97.9-22.967-58.1zM271.309 224.8l-34.55 53.3 73.993 20.6 21.17-72.7zM4.594 226l21.07 72.7 73.893-20.6-34.35-53.3z"></path>
    <path fill="#6d95f9"
        d="m95.662 134.8-20.57 31.3 73.294 3.4L145.99 90zM240.853 134.8 189.827 89l-1.698 80.4 73.294-3.4zM99.557 278.1l44.336-21.6-38.145-30zM192.523 256.5l44.236 21.6-6.091-51.6z"></path>
    <path fill="#d7c1b3"
        d="m236.759 278.1-44.236-21.6 3.594 29-.399 12.3zM99.557 278.1l41.14 19.6-.3-12.3 3.496-29z"></path>
    <path fill="#2f343b"
        d="m141.496 207.4-36.747-10.9 25.963-12zM195.019 207.4l10.784-22.9 26.063 12z"></path>
    <path fill="#497bf8"
        d="m99.557 278.1 6.39-53.3-40.84 1.2zM230.468 224.8l6.29 53.3 34.55-52.1zM261.423 166.1l-73.294 3.4 6.79 37.9 10.785-22.9 26.062 12zM104.75 196.5l25.962-12 10.784 22.9 6.79-37.9-73.294-3.4z"></path>
    <path fill="#6d95f9"
        d="m75.092 166.1 30.756 60.4-.999-30zM231.866 196.5l-1.198 30 30.755-60.4zM148.286 169.5l-6.79 37.9 8.588 44.7 1.897-59zM188.129 169.5l-3.595 23.5 1.798 59.1 8.587-44.7z"></path>
    <path fill="#b6cafc"
        d="m195.019 207.4-8.588 44.7 6.191 4.4 38.145-30 1.199-30zM104.75 196.5l.998 30 38.145 30 6.19-4.4-8.587-44.7z"></path>
    <path fill="#c0ad9e"
        d="m195.718 297.7.4-12.3-3.296-2.8h-49.129l-3.195 2.8.3 12.3L99.656 278l14.379 11.9 29.158 20.3h50.028l29.257-20.3 14.28-11.9z"></path>
    <path fill="#2f343b"
        d="m192.523 256.5-6.191-4.4h-36.248l-6.191 4.4-3.495 29 3.195-2.8h49.13l3.295 2.8z"></path>
    <path fill="#2c56dd"
        d="m323.633 103.3 10.885-53.5L318.04 0 192.423 93.7l48.33 41.1 68.301 20 15.079-17.7-6.59-4.8 10.384-9.6-7.988-6.2 10.385-8zM1.898 49.8l11.084 53.5-7.09 5.3 10.585 8-7.989 6.2 10.385 9.6-6.59 4.8 15.078 17.7 68.301-20 48.33-41.1L18.375 0z"></path>
    <path fill="#b6cafc"
        d="m309.154 154.9-68.301-20 20.57 31.3-30.755 60.4 40.64-.5h60.713zM95.662 134.8l-68.3 20-22.768 71.1h60.513l40.64.5L74.993 166zM188.129 169.5l4.394-75.8 19.771-53.9h-88.173l19.772 53.9 4.393 75.8 1.698 23.8.1 58.8h36.248l.1-58.8z"></path>
</svg>